<?xml version="1.0" standalone="no"?>
<!DOCTYPE svg PUBLIC "-//W3C//DTD SVG 20010904//EN"
 "http://www.w3.org/TR/2001/REC-SVG-20010904/DTD/svg10.dtd">
<svg version="1.0" xmlns="http://www.w3.org/2000/svg"
 width="50.000000pt" height="50.000000pt" viewBox="0 0 50.000000 50.000000"
 preserveAspectRatio="xMidYMid meet">

<g transform="translate(0.000000,50.000000) scale(0.100000,-0.100000)"
fill="#000000" stroke="none">
<path d="M155 456 c-60 -28 -87 -56 -114 -116 -36 -79 -19 -183 42 -249 33
-36 115 -71 167 -71 52 0 134 35 167 71 58 63 77 163 47 239 -14 34 -20 40
-38 34 -39 -12 -51 -30 -38 -59 41 -90 -37 -205 -139 -205 -73 0 -149 76 -149
150 0 100 117 179 205 138 29 -13 47 -1 59 38 6 18 0 24 -34 38 -57 22 -116
20 -175 -8z"/>
<path d="M403 448 c-13 -13 -23 -31 -23 -38 0 -8 -32 -47 -72 -87 -40 -40 -69
-76 -65 -80 4 -4 40 25 80 65 40 40 79 72 88 72 9 0 26 11 39 25 23 25 23 25
2 25 -13 0 -22 7 -24 21 -3 20 -3 20 -25 -3z"/>
<path d="M189 311 c-20 -20 -29 -39 -29 -61 0 -43 47 -90 90 -90 43 0 90 47
90 89 0 39 -9 39 -45 1 -18 -19 -38 -30 -50 -28 -32 5 -30 40 5 73 38 36 38
45 -1 45 -20 0 -40 -10 -60 -29z"/>
</g>
</svg>
