<?xml version="1.0" standalone="no"?>
<!DOCTYPE svg PUBLIC "-//W3C//DTD SVG 20010904//EN"
 "http://www.w3.org/TR/2001/REC-SVG-20010904/DTD/svg10.dtd">
<svg version="1.0" xmlns="http://www.w3.org/2000/svg"
 width="50.000000pt" height="50.000000pt" viewBox="0 0 50.000000 50.000000"
 preserveAspectRatio="xMidYMid meet">

<g transform="translate(0.000000,50.000000) scale(0.100000,-0.100000)"
fill="#000000" stroke="none">
<path d="M217 494 c-4 -4 -7 -58 -7 -121 0 -140 -18 -152 -22 -15 -3 89 -5 97
-23 97 -19 0 -20 -8 -23 -138 -1 -80 -7 -137 -12 -137 -6 0 -10 22 -10 48 0
51 -19 90 -38 78 -20 -12 -15 -174 7 -222 26 -58 83 -84 180 -84 67 0 75 2
102 29 l29 30 -2 183 c-3 175 -4 183 -23 183 -18 0 -20 -8 -23 -82 -2 -46 -7
-83 -12 -83 -5 0 -11 48 -12 108 -3 99 -4 107 -23 107 -19 0 -20 -8 -23 -102
-1 -57 -7 -103 -12 -103 -5 0 -11 51 -12 112 -2 92 -6 113 -18 116 -9 1 -19 0
-23 -4z"/>
</g>
</svg>
